<svg xmlns="http://www.w3.org/2000/svg" width="81" height="81" viewBox="0 0 81 81" fill="none">

<path fill-rule="evenodd" clip-rule="evenodd" d="M40.2662 0.683594C29.4506 0.683594 20.526 8.82682 19.2217 19.3503H0.5V40.6836C0.5 51.5625 8.59564 60.5396 19.0576 61.8518V80.6836H40.2662C51.0818 80.6836 60.0064 72.5404 61.3107 62.0169H80.0325V40.6836C80.0325 29.8047 71.9368 20.8276 61.4749 19.5154V0.683594H40.2662ZM19.2217 24.6836C20.41 34.2699 27.9216 41.8811 37.4256 43.1607C36.242 50.821 29.6562 56.6836 21.7087 56.6836C12.9238 56.6836 5.80216 49.5202 5.80216 40.6836V24.6836H19.2217ZM24.3597 75.3503V61.8518C33.8902 60.6564 41.4566 53.1008 42.7288 43.5409C50.3445 44.7314 56.1727 51.3561 56.1727 59.3503C56.1727 68.1868 49.051 75.3503 40.2662 75.3503H24.3597ZM43.1068 38.2065C52.6109 39.4861 60.1224 47.0973 61.3107 56.6836H74.7303V40.6836C74.7303 31.847 67.6086 24.6836 58.8238 24.6836C50.8763 24.6836 44.2905 30.5462 43.1068 38.2065ZM56.1727 6.01693V19.5154C46.6423 20.7108 39.0758 28.2664 37.8036 37.8263C30.188 36.6358 24.3597 30.0111 24.3597 22.0169C24.3597 13.1803 31.4814 6.01693 40.2662 6.01693H56.1727Z" fill="#FFB001"/>
</svg>